<svg width="45" height="32" viewBox="0 0 45 32" fill="none" xmlns="http://www.w3.org/2000/svg">
<path d="M21.717 0.599999L20.967 1.45C20.467 2.01667 20.217 2.65 20.217 3.35V28.05C20.2837 28.2167 20.3503 28.4333 20.417 28.7C20.517 28.9667 20.6503 29.2833 20.817 29.65C21.017 30.1833 21.167 30.5833 21.267 30.85C21.367 31.1167 21.417 31.25 21.417 31.25C21.417 31.75 21.217 32 20.817 32C20.6503 31.9333 20.5003 31.8667 20.367 31.8C20.2337 31.7333 20.0837 31.6667 19.917 31.6C19.4837 31.3667 18.967 31.25 18.367 31.25C17.8337 31.25 17.4503 31.3167 17.217 31.45L15.867 31.85C15.6003 31.85 15.4003 31.7333 15.267 31.5L15.167 30.65L15.267 29.75L15.167 28.9C12.3003 30.9667 10.1837 32 8.81699 32C7.11699 32 5.36699 31.0833 3.56699 29.25C1.80033 27.3833 0.916992 25.6 0.916992 23.9V21C0.916992 18.5333 2.95033 15.7167 7.01699 12.55C8.55033 11.3167 9.68366 10.7 10.417 10.7H12.517L13.417 10.95C13.6837 11.0833 13.8837 11.1833 14.017 11.25C14.1837 11.2833 14.517 11.45 15.017 11.75L15.417 11.3V6.45C15.417 5.55 15.1503 4.9 14.617 4.5C14.117 4.13333 13.8337 3.8 13.767 3.5L17.017 1.75C18.9837 0.683332 20.2503 0.0999984 20.817 -2.26498e-06C21.3503 -2.26498e-06 21.6503 0.199998 21.717 0.599999ZM15.267 25.55V17.3C13.0003 15.0333 11.117 13.9 9.61699 13.9C8.11699 13.9 6.91699 14.45 6.01699 15.55C5.15033 16.65 4.71699 18 4.71699 19.6V20.35L4.41699 20.7C6.11699 25.1 8.36699 27.3 11.167 27.3H12.517C12.9837 27.3 13.4837 27.1333 14.017 26.8L15.267 25.55ZM44.0174 19.6C44.0174 21.7333 42.4341 24.1833 39.2674 26.95L35.7174 29.5C33.3507 31.1667 31.9341 32 31.4674 32C29.7674 32 28.2507 30.8 26.9174 28.4C26.4507 27.5667 25.984 26.3667 25.5174 24.8V6.6C25.5174 6.1 25.134 5.41667 24.3674 4.55C24.034 4.18333 23.8507 3.83333 23.8174 3.5L27.0174 1.75C28.0507 1.18333 28.8507 0.766664 29.4174 0.499997C30.0174 0.199997 30.384 0.0333306 30.5174 -2.26498e-06L31.3174 0.0999994C31.5174 0.199998 31.6174 0.366665 31.6174 0.599999C30.6174 1.36667 30.1174 2.4 30.1174 3.7V13.8C30.8174 13.7 32.0007 13.1833 33.6674 12.25C35.5007 11.2167 36.7507 10.7 37.4174 10.7C38.6507 10.6667 40.0507 11.6 41.6174 13.5C43.2174 15.3667 44.0174 16.9333 44.0174 18.2V19.6ZM39.4174 22.95V20.5C39.4174 19.3 38.7507 17.9833 37.4174 16.55C36.084 15.1167 34.8174 14.4 33.6174 14.4C32.584 14.4 31.5007 14.9667 30.3674 16.1V23.6C30.3674 24.3667 30.884 25.3167 31.9174 26.45C32.9507 27.5833 33.8174 28.15 34.5174 28.15C35.3841 28.15 36.4174 27.5167 37.6174 26.25C38.8174 24.95 39.4174 23.85 39.4174 22.95Z" fill="black"/>
</svg>
